<svg xmlns="http://www.w3.org/2000/svg" xmlns:xlink="http://www.w3.org/1999/xlink" id="Livello_2" data-name="Livello 2" viewBox="0 0 686.98 61.02"><defs><style>      .cls-1 {        fill: url(#Sfumatura_senza_nome_2);      }      .cls-1, .cls-2, .cls-3 {        stroke-width: 0px;      }      .cls-2 {        fill: #fff;      }      .cls-3 {        fill: #ef2b89;      }    </style><linearGradient id="Sfumatura_senza_nome_2" data-name="Sfumatura senza nome 2" x1="127.12" y1="79.41" x2="0" y2="79.41" gradientTransform="translate(0 110) scale(1 -1)" gradientUnits="userSpaceOnUse"><stop offset="0" stop-color="#5e35f2"/><stop offset="1" stop-color="#f22987"/></linearGradient></defs><g id="Livello_1-2" data-name="Livello 1"><path class="cls-1" d="m96.62.17c-7.81,0-15.6,2.96-21.53,8.89-.03.03-.09.09-.12.12l-32.98,33c-6.38,6.38-16.77,6.38-23.17,0-3.1-3.1-4.8-7.2-4.8-11.59s1.7-8.49,4.8-11.59c6.38-6.38,16.77-6.38,23.17,0l6.09,6.09,9.95-9.95-6.09-6.09c-11.88-11.88-31.19-11.88-43.04,0-11.85,11.88-11.88,31.19,0,43.04,5.73,5.73,13.4,8.92,21.53,8.92s15.77-3.16,21.53-8.92l33.12-33.12s.06-.06.09-.09c6.41-6.29,16.71-6.26,23.09.09,3.1,3.1,4.8,7.2,4.8,11.59s-1.7,8.49-4.8,11.59c-6.38,6.38-16.77,6.38-23.17,0l-6.17-6.17-9.95,9.95,6.17,6.17c5.73,5.73,13.4,8.92,21.53,8.92s15.77-3.16,21.53-8.92c11.88-11.88,11.88-31.19,0-43.04C112.18,3.15,104.4.17,96.62.17h0Z"/><path class="cls-1" d="m96.62.17c-7.81,0-15.6,2.96-21.53,8.89-.03.03-.09.09-.12.12l-32.98,33c-6.38,6.38-16.77,6.38-23.17,0-3.1-3.1-4.8-7.2-4.8-11.59s1.7-8.49,4.8-11.59c6.38-6.38,16.77-6.38,23.17,0l6.09,6.09,9.95-9.95-6.09-6.09c-11.88-11.88-31.19-11.88-43.04,0-11.85,11.88-11.88,31.19,0,43.04,5.73,5.73,13.4,8.92,21.53,8.92s15.77-3.16,21.53-8.92l33.12-33.12s.06-.06.09-.09c6.41-6.29,16.71-6.26,23.09.09,3.1,3.1,4.8,7.2,4.8,11.59s-1.7,8.49-4.8,11.59c-6.38,6.38-16.77,6.38-23.17,0l-6.17-6.17-9.95,9.95,6.17,6.17c5.73,5.73,13.4,8.92,21.53,8.92s15.77-3.16,21.53-8.92c11.88-11.88,11.88-31.19,0-43.04C112.18,3.15,104.4.17,96.62.17h0Z"/><g><path class="cls-2" d="m170.23,56.89h-14.94c-1.83,0-2.15-.71-2.15-1.67V5.88c0-.95.32-1.75,2.07-1.75h15.02c17.24,0,21.61,12.31,21.61,26.3s-4.13,26.46-21.61,26.46Zm-.79-42.11h-3.58v31.46h3.1c5.96,0,9.69-4.13,9.69-15.25s-2.86-16.21-9.22-16.21Z"/><path class="cls-2" d="m197.16,37.58c0-7.63,1.27-20.66,16.53-20.66,14.14,0,16.45,9.61,16.45,18.12,0,3.34-1.11,5.17-4.61,5.17h-16.05c.4,5.88,2.7,7.15,6.75,7.15,2.7,0,5.24-.32,8.02-.71,1.27-.16,2.7-.48,3.02,1.27l.71,4.05c.24,1.51,0,2.46-1.59,3.34-2.7,1.51-8.18,2.3-12.08,2.3-14.62,0-17.16-9.37-17.16-20.02Zm12.47-4.61h8.02c0-4.13-.87-6.67-3.97-6.67-2.62,0-3.97,1.59-4.05,6.67Z"/><path class="cls-2" d="m247.77,57.6c-3.5,0-8.42-.71-11.28-1.83-2.62-1.03-3.1-1.83-2.7-3.81l.71-3.81c.32-1.67.87-1.83,3.1-1.43,3.18.64,7.47,1.03,9.77,1.03,2.94,0,4.05-.87,4.05-2.86,0-2.3-.87-2.78-3.26-3.1-7.71-1.27-14.22-2.94-14.22-12.16,0-8.42,6.36-12.71,14.94-12.71,3.18,0,8.18.64,10.96,1.75,2.07.87,3.1,1.51,2.86,3.26l-.87,4.13c-.24,1.19-.56,1.75-2.86,1.43-3.5-.48-7.87-.87-9.77-.87-2.7-.08-3.1.95-3.1,2.62,0,1.91,1.51,2.3,3.65,2.62,7.15,1.11,14.06,3.02,14.06,12.55s-7.87,13.19-16.05,13.19Z"/><path class="cls-2" d="m294.17,52.36c.32,1.91-.72,2.78-1.67,3.26-3.42,1.67-8.18,1.91-10.65,1.91-8.1,0-10.88-4.21-10.88-11.36v-18.99h-2.54c-1.59,0-1.91-.56-1.91-1.75v-6.04c0-1.19.32-1.75,1.91-1.75h2.7v-7.79c0-1.11.79-1.67,1.99-1.99l7.23-2.23c1.51-.4,2.54,0,2.54,1.59v10.41h6.67c1.83,0,1.83.72,1.83,1.83v5.8c0,1.27,0,1.91-1.83,1.91h-6.75v13.82c0,4.61.71,5.72,3.58,5.72.95,0,2.86-.24,4.53-.4,1.99-.16,2.3.08,2.54,1.51l.72,4.53Z"/><path class="cls-2" d="m303.55,13.35c-5.48,0-6.2-3.1-6.2-6.04,0-3.26,1.27-5.88,6.2-5.88,5.24,0,6.36,2.46,6.36,5.88,0,3.1-1.03,6.04-6.36,6.04Zm3.89,43.54h-7.79c-1.75,0-2.22-.64-2.22-1.67V19.39c0-1.03.48-1.75,2.22-1.75h7.79c1.91,0,2.07,1.03,2.07,1.75v35.83c0,.72-.16,1.67-2.07,1.67Z"/><path class="cls-2" d="m328.18,20.9c3.02-2.62,6.91-3.89,9.85-3.89,10.65,0,11.28,8.26,11.28,15.65v22.56c0,.72-.08,1.67-1.99,1.67h-8.26c-1.59,0-1.99-.64-1.99-1.67,0-7.39.08-14.62.08-22.01,0-3.73-1.27-5.01-3.5-5.01-1.75,0-4.37,1.11-5.8,1.83v25.19c0,.72-.08,1.67-1.91,1.67h-8.26c-1.67,0-1.99-.64-1.99-1.67V19.39c0-1.03.32-1.75,1.99-1.75h8.42c1.51,0,1.75,1.03,1.75,1.75v1.35l.32.16Z"/><path class="cls-2" d="m386.49,56.89h-28.92c-1.67,0-1.99-.64-1.99-1.67V5.88c0-1.03.32-1.75,1.99-1.75h27.97c1.35,0,1.91.71,1.91,1.75v7.31c0,.95,0,1.59-1.75,1.59h-17.32v9.38h15.33c1.35,0,1.83.48,1.83,1.51v7.31c0,.95,0,1.75-1.83,1.75h-15.33v11.52h18.35c1.35,0,1.67.64,1.67,1.67v7.31c0,.95,0,1.67-1.91,1.67Z"/><path class="cls-3" d="m431.78,37.58h-5.32v17.64c0,.72-.08,1.67-1.99,1.67h-8.74c-1.75,0-2.07-.64-2.07-1.67V5.88c0-1.03.32-1.75,2.07-1.75h12.95c10.65,0,19.94,3.42,19.94,16.45,0,7.31-2.94,17-16.84,17Zm-1.59-22.8h-3.73v12.47h3.89c3.5,0,5.32-2.15,5.32-6.36s-2.07-6.12-5.48-6.12Z"/><path class="cls-3" d="m452.52,45.69V2.62c0-1.03.24-1.75,1.99-1.75h8.02c1.99,0,2.07.95,2.07,1.75v42.11c0,2.07,1.11,2.38,2.22,2.54,1.03.16,2.22,0,2.3,1.67l.32,5.16c.08,1.11-.24,1.43-.79,1.83-1.51,1.03-4.93,1.35-6.59,1.35-7.47,0-9.53-3.57-9.53-11.6Z"/><path class="cls-3" d="m471.74,45.84c0-9.77,5.56-13.19,14.14-13.19h7.07v-1.11c0-3.18-1.03-4.69-5.4-4.69-2.3,0-7.31.56-10.57.87-1.11.08-1.43-.4-1.67-1.51l-.72-3.89c-.24-1.11-.08-1.91.72-2.46,2.78-1.99,10.01-2.94,13.98-2.94,13.59,0,15.65,5.72,15.65,15.25v12.24c0,3.34.16,3.65,1.91,3.81,1.83.24,2.15.48,2.15,1.35v4.45c0,.95-.16,1.67-1.11,2.22-1.19.64-2.78,1.03-5.56,1.03-4.37,0-6.75-1.03-8.02-3.97-.08,0-.16-.08-.24-.08-3.58,3.1-8.5,4.29-11.76,4.29-8.74,0-10.57-5.64-10.57-11.68Zm21.05-5.32h-5.24c-1.99,0-3.5,1.03-3.5,4.69,0,2.38.56,3.18,2.3,3.18,1.91,0,4.85-1.43,6.44-2.62v-5.24Z"/><path class="cls-3" d="m538.25,52.36c.32,1.91-.72,2.78-1.67,3.26-3.42,1.67-8.18,1.91-10.65,1.91-8.1,0-10.88-4.21-10.88-11.36v-18.99h-2.54c-1.59,0-1.91-.56-1.91-1.75v-6.04c0-1.19.32-1.75,1.91-1.75h2.7v-7.79c0-1.11.79-1.67,1.99-1.99l7.23-2.23c1.51-.4,2.54,0,2.54,1.59v10.41h6.67c1.83,0,1.83.72,1.83,1.83v5.8c0,1.27,0,1.91-1.83,1.91h-6.75v13.82c0,4.61.71,5.72,3.58,5.72.95,0,2.86-.24,4.53-.4,1.99-.16,2.3.08,2.54,1.51l.72,4.53Z"/><path class="cls-3" d="m569.15,2.38c.64.48.95,1.11.71,2.46l-.87,5.08c-.24,1.51-1.43,1.27-2.7,1.11-2.78-.4-4.93-.48-6.44-.48-2.94,0-3.81,2.07-3.81,5.24v1.83h7.07c1.75,0,1.91.64,1.91,1.75v6.04c0,1.27-.16,1.83-1.91,1.83h-7.15v27.97c0,.72-.08,1.67-1.91,1.67h-8.18c-1.75,0-1.99-.64-1.99-1.67,0-9.37.08-18.67.08-27.97h-2.62c-1.59,0-1.83-.56-1.83-1.83v-5.96c0-1.19.32-1.83,1.91-1.83h2.54v-3.73c0-8.5,4.21-13.9,14.22-13.9,3.18,0,8.82.95,10.96,2.38Z"/><path class="cls-3" d="m583.37,57.52c-15.49,0-16.61-12-16.61-20.82,0-6.99,1.59-19.78,16.61-19.78s17.16,10.65,17.16,19.78-1.27,20.82-17.16,20.82Zm.16-30.19c-3.66,0-4.53,3.58-4.53,9.85,0,6.83.87,9.93,4.37,9.93,3.97,0,4.85-3.34,4.85-9.93s-.71-9.85-4.69-9.85Z"/><path class="cls-3" d="m631.6,25.98c.24,1.99.08,2.78-2.3,3.34-4.05.95-7.79,2.07-10.81,3.5v22.4c0,.72-.08,1.67-1.99,1.67h-8.1c-1.75,0-1.99-.64-1.99-1.67V19.39c0-1.03.24-1.75,1.99-1.75h8.1c1.91,0,1.99,1.03,1.99,1.75v3.02l.24.16c3.02-3.42,7.79-5.4,10.33-5.4,1.03,0,1.67.4,1.83,1.91l.71,6.91Z"/><path class="cls-3" d="m646.38,20.98c2.62-2.46,6.44-4.05,9.38-4.05,5.08,0,7.79,2.38,8.98,5.08,3.89-3.42,7.71-5.08,11.28-5.08,10.65,0,10.96,8.34,10.96,15.73v22.33c0,.79.08,1.91-1.83,1.91h-8.5c-1.59,0-1.91-.64-1.91-1.67,0-7.39.08-14.78.08-22.09,0-3.66-1.27-4.93-3.1-4.93-1.51,0-3.73,1.03-5.4,1.99,0,1.27.08,2.46.08,3.73v21.29c0,.72,0,1.67-1.83,1.67h-8.26c-1.67,0-1.91-.64-1.91-1.67,0-7.47.08-14.86.08-22.25,0-3.89-1.27-4.77-3.18-4.77-1.59,0-3.66.95-5.24,1.91v24.87c0,.79,0,1.91-1.83,1.91h-8.42c-1.75,0-1.91-.64-1.91-1.67V19.39c0-1.03.16-1.75,1.91-1.75h8.26c1.91,0,1.99,1.03,1.99,1.75v1.51c.08,0,.24.08.32.08Z"/></g></g></svg>